<?xml version="1.0" encoding="UTF-8" standalone="no"?>
<svg width="390px" height="320px" viewBox="0 0 390 320" version="1.1" xmlns="http://www.w3.org/2000/svg" xmlns:xlink="http://www.w3.org/1999/xlink">
    <!-- Generator: Sketch 43.2 (39069) - http://www.bohemiancoding.com/sketch -->
    <title>anthillinsidelogo</title>
    <desc>Created with Sketch.</desc>
    <defs></defs>
    <g id="Page-2" stroke="none" stroke-width="1" fill="none" fill-rule="evenodd">
        <g id="anthillinsidelogo" transform="translate(3.000000, 0.000000)">
            <path d="M241.5,29.59 L380.23,319 L3,319 L141.69,29.59 C163.87,-8.83 219.32,-8.83 241.5,29.59 Z" id="Shape" fill="#3F50A3" fill-rule="nonzero"></path>
            <path d="M8.17,311.86 L375,311.86 L238.91,31.09 C229.149731,14.1932429 211.118156,3.78533394 191.605,3.78533394 C172.091844,3.78533394 154.060269,14.1932429 144.3,31.09 L8.17,311.86 Z" id="Shape" fill="#3F50A3" fill-rule="nonzero"></path>
            <polyline id="Shape" stroke="#FFFFFF" stroke-width="6" points="144.82 107.54 144.99 75.68 190.58 48.63 237.94 74.62 238.35 107.17"></polyline>
            <path d="M52.71,286.73 L0.83,315.95" id="Shape" stroke="#FFFFFF" stroke-width="6" stroke-linecap="round"></path>
            <polygon id="Shape" fill="#FFFFFF" fill-rule="nonzero" points="95.35 192.08 95.16 152.03 124.62 134.41 127.7 139.56 101.18 155.42 101.35 192.05"></polygon>
            <polygon id="Shape" fill="#FFFFFF" fill-rule="nonzero" points="131.82 282.82 96.52 262.3 95.17 233.19 101.17 232.92 102.36 258.76 134.84 277.63"></polygon>
            <polygon id="Shape" fill="#FFFFFF" fill-rule="nonzero" points="255.52 281.35 252.63 276.09 282.1 259.82 281.42 233.13 287.42 232.98 288.19 263.31"></polygon>
            <polygon id="Shape" fill="#FFFFFF" fill-rule="nonzero" points="287.42 192.09 281.42 191.98 282.11 155.45 252.59 138.68 255.56 133.46 288.17 152"></polygon>
            <polygon id="Shape" fill="#FFFFFF" fill-rule="nonzero" points="160.98 121.04 157.98 115.84 190.32 97.17 222.03 114.3 219.18 119.58 190.42 104.04"></polygon>
            <polygon id="Shape" fill="#FFFFFF" fill-rule="nonzero" points="190.55 318.32 162.95 302.11 165.99 296.94 190.61 311.4 218.19 295.94 221.12 301.17"></polygon>
            <polygon id="Shape" fill="#FFFFFF" fill-rule="nonzero" points="98.34 318.29 48.85 289.07 48.85 232.65 77.61 215.37 80.7 220.51 54.85 236.04 54.85 285.64 98.38 311.35 128.84 293.8 131.83 299"></polygon>
            <polygon id="Shape" fill="#FFFFFF" fill-rule="nonzero" points="284.44 318.99 252.89 300.81 255.88 295.61 284.4 312.05 327.94 286.34 327.94 236.74 302.09 221.21 305.18 216.07 333.94 233.34 333.94 289.77"></polygon>
            <path d="M141.89,141.47 C132.998216,141.47 125.79,134.261784 125.79,125.37 C125.79,116.478216 132.998216,109.27 141.89,109.27 C150.781784,109.27 157.99,116.478216 157.99,125.37 C157.978981,134.257216 150.777216,141.458981 141.89,141.47 L141.89,141.47 Z M141.89,115.27 C136.311924,115.27 131.79,119.791924 131.79,125.37 C131.79,130.948076 136.311924,135.47 141.89,135.47 C147.468076,135.47 151.99,130.948076 151.99,125.37 C151.984488,119.794209 147.465791,115.275512 141.89,115.27 Z" id="Shape" fill="#FFFFFF" fill-rule="nonzero"></path>
            <path d="M237.91,141.47 C229.018216,141.47 221.81,134.261784 221.81,125.37 C221.81,116.478216 229.018216,109.27 237.91,109.27 C246.801784,109.27 254.01,116.478216 254.01,125.37 C253.998981,134.257216 246.797216,141.458981 237.91,141.47 L237.91,141.47 Z M237.91,115.27 C232.331924,115.27 227.81,119.791924 227.81,125.37 C227.81,130.948076 232.331924,135.47 237.91,135.47 C243.488076,135.47 248.01,130.948076 248.01,125.37 C248.004488,119.794209 243.485791,115.275512 237.91,115.27 Z" id="Shape" fill="#FFFFFF" fill-rule="nonzero"></path>
            <path d="M285.14,228.82 C276.248216,228.82 269.04,221.611784 269.04,212.72 C269.04,203.828216 276.248216,196.62 285.14,196.62 C294.031784,196.62 301.24,203.828216 301.24,212.72 C301.228981,221.607216 294.027216,228.808981 285.14,228.82 L285.14,228.82 Z M285.14,202.62 C279.561924,202.62 275.04,207.141924 275.04,212.72 C275.04,218.298076 279.561924,222.82 285.14,222.82 C290.718076,222.82 295.24,218.298076 295.24,212.72 C295.234488,207.144209 290.715791,202.625512 285.14,202.62 Z" id="Shape" fill="#FFFFFF" fill-rule="nonzero"></path>
            <path d="M98.17,228.82 C89.2782155,228.82 82.07,221.611784 82.07,212.72 C82.07,203.828216 89.2782155,196.62 98.17,196.62 C107.061784,196.62 114.27,203.828216 114.27,212.72 C114.258981,221.607216 107.057216,228.808981 98.17,228.82 L98.17,228.82 Z M98.17,202.62 C92.591924,202.62 88.07,207.141924 88.07,212.72 C88.07,218.298076 92.591924,222.82 98.17,222.82 C103.748076,222.82 108.27,218.298076 108.27,212.72 C108.264488,207.144209 103.745791,202.625512 98.17,202.62 Z" id="Shape" fill="#FFFFFF" fill-rule="nonzero"></path>
            <path d="M148.52,306.11 C139.628216,306.11 132.42,298.901784 132.42,290.01 C132.42,281.118216 139.628216,273.91 148.52,273.91 C157.411784,273.91 164.62,281.118216 164.62,290.01 C164.608981,298.897216 157.407216,306.098981 148.52,306.11 Z M148.52,279.91 C142.941924,279.91 138.42,284.431924 138.42,290.01 C138.42,295.588076 142.941924,300.11 148.52,300.11 C154.098076,300.11 158.62,295.588076 158.62,290.01 C158.614488,284.434209 154.095791,279.915512 148.52,279.91 L148.52,279.91 Z" id="Shape" fill="#FFFFFF" fill-rule="nonzero"></path>
            <path d="M237.11,306.11 C228.218216,306.11 221.01,298.901784 221.01,290.01 C221.01,281.118216 228.218216,273.91 237.11,273.91 C246.001784,273.91 253.21,281.118216 253.21,290.01 C253.198981,298.897216 245.997216,306.098981 237.11,306.11 Z M237.11,279.91 C231.531924,279.91 227.01,284.431924 227.01,290.01 C227.01,295.588076 231.531924,300.11 237.11,300.11 C242.688076,300.11 247.21,295.588076 247.21,290.01 C247.204488,284.434209 242.685791,279.915512 237.11,279.91 L237.11,279.91 Z" id="Shape" fill="#FFFFFF" fill-rule="nonzero"></path>
            <path d="M141.89,115.27 C136.311924,115.27 131.79,119.791924 131.79,125.37 C131.79,130.948076 136.311924,135.47 141.89,135.47 C147.468076,135.47 151.99,130.948076 151.99,125.37 C151.984488,119.794209 147.465791,115.275512 141.89,115.27 Z" id="Shape" fill="#51C1D3" fill-rule="nonzero"></path>
            <path d="M285.14,202.62 C279.561924,202.62 275.04,207.141924 275.04,212.72 C275.04,218.298076 279.561924,222.82 285.14,222.82 C290.718076,222.82 295.24,218.298076 295.24,212.72 C295.234488,207.144209 290.715791,202.625512 285.14,202.62 Z" id="Shape" fill="#51C1D3" fill-rule="nonzero"></path>
            <path d="M148.52,279.91 C142.941924,279.91 138.42,284.431924 138.42,290.01 C138.42,295.588076 142.941924,300.11 148.52,300.11 C154.098076,300.11 158.62,295.588076 158.62,290.01 C158.614488,284.434209 154.095791,279.915512 148.52,279.91 L148.52,279.91 Z" id="Shape" fill="#51C1D3" fill-rule="nonzero"></path>
            <path d="M237.91,115.27 C232.331924,115.27 227.81,119.791924 227.81,125.37 C227.81,130.948076 232.331924,135.47 237.91,135.47 C243.488076,135.47 248.01,130.948076 248.01,125.37 C248.004488,119.794209 243.485791,115.275512 237.91,115.27 Z" id="Shape" fill="#F26822" fill-rule="nonzero"></path>
            <path d="M236.87,279.91 C231.294558,279.926563 226.787158,284.457826 226.800032,290.033277 C226.812906,295.608729 231.341185,300.119127 236.916644,300.109942 C242.492102,300.100757 247.005496,295.575464 247,290 C246.994701,287.31866 245.924458,284.749246 244.024713,282.857003 C242.124969,280.964759 239.55134,279.90469 236.87,279.91 L236.87,279.91 Z" id="Shape" fill="#F26822" fill-rule="nonzero"></path>
            <path d="M98.17,202.62 C92.591924,202.62 88.07,207.141924 88.07,212.72 C88.07,218.298076 92.591924,222.82 98.17,222.82 C103.748076,222.82 108.27,218.298076 108.27,212.72 C108.264488,207.144209 103.745791,202.625512 98.17,202.62 Z" id="Shape" fill="#F26822" fill-rule="nonzero"></path>
            <path d="M330.86,287.64 L383.23,316.86" id="Shape" stroke="#FFFFFF" stroke-width="6" stroke-linecap="round"></path>
            <path d="M155.57,140.54 L227.01,272.7" id="Shape" stroke="#FFFFFF" stroke-linecap="round" stroke-linejoin="round"></path>
            <path d="M160.48,271.83 L227.01,142.54" id="Shape" stroke="#FFFFFF" stroke-linecap="round" stroke-linejoin="round"></path>
            <path d="M263.91,210.47 L119.41,210.47" id="Shape" stroke="#FFFFFF" stroke-linecap="round" stroke-linejoin="round"></path>
            <path d="M235.54,145.2 L236.87,269.2" id="Shape" stroke="#FFFFFF" stroke-linecap="round" stroke-linejoin="round"></path>
            <path d="M243.41,143.87 L271.24,196.62" id="Shape" stroke="#FFFFFF" stroke-linecap="round" stroke-linejoin="round"></path>
            <path d="M217.67,127.04 L162.34,127.04" id="Shape" stroke="#FFFFFF" stroke-linecap="round" stroke-linejoin="round"></path>
            <path d="M134.83,143.87 L109.91,195.2" id="Shape" stroke="#FFFFFF" stroke-linecap="round" stroke-linejoin="round"></path>
            <path d="M148.71,145.1 L148.71,267.76" id="Shape" stroke="#FFFFFF" stroke-linecap="round" stroke-linejoin="round"></path>
            <path d="M109.91,230.54 L138.42,271.04" id="Shape" stroke="#FFFFFF" stroke-linecap="round" stroke-linejoin="round"></path>
            <path d="M168.57,286.73 L217.24,286.73" id="Shape" stroke="#FFFFFF" stroke-width="3" stroke-linecap="round" stroke-linejoin="round"></path>
            <path d="M245.91,272.2 L270.91,228.82" id="Shape" stroke="#FFFFFF" stroke-linecap="round" stroke-linejoin="round"></path>
            <path d="M165.91,277.87 L265.91,219.87" id="Shape" stroke="#FFFFFF" stroke-linecap="round" stroke-linejoin="round"></path>
            <path d="M117.24,222.82 L218.57,277.87" id="Shape" stroke="#FFFFFF" stroke-linecap="round" stroke-linejoin="round"></path>
            <path d="M116.24,202.2 L219.52,135.31" id="Shape" stroke="#FFFFFF" stroke-linecap="round" stroke-linejoin="round"></path>
            <path d="M160.48,134.66 L265.91,201.2" id="Shape" stroke="#FFFFFF" stroke-linecap="round" stroke-linejoin="round"></path>
            <path d="M191.6,3.77 L191.6,48.63" id="Shape" stroke="#FFFFFF" stroke-width="6" stroke-linecap="round"></path>
        </g>
    </g>
</svg>