<svg xmlns="http://www.w3.org/2000/svg" viewBox="0 0 119.45 117.39"><defs><style>.a{fill:#f4dc32;}.b{fill:#99cb54;}.c{fill:#157e82;}.d{fill:#1baf82;}.e{isolation:isolate;}.f{fill:#0c343f;}</style></defs><title>fragments logo final-10</title><polygon class="a" points="83.25 20.01 103.24 20.01 103.24 0.02 83.25 20.01"/><polygon class="b" points="37.47 91.37 57.81 91.37 57.81 71.03 37.47 91.37"/><polygon class="b" points="80.81 20.01 100.82 0 80.81 0 60.8 20.01 80.81 20.01"/><polygon class="c" points="37.5 48.17 57.84 68.51 57.84 48.17 57.84 27.83 37.5 48.17"/><polygon class="d" points="61.31 65.07 33.81 37.57 33.81 65.07 33.81 92.58 61.31 65.07"/><polygon class="c" points="37.46 5.94 37.46 45.78 57.38 25.86 57.38 25.86 77.3 5.94 37.46 5.94"/><rect class="d" x="59.57" y="38" width="20.34" height="20.34"/><g class="e"><g class="e"><path class="f" d="M7.46,112.9h7.6v1.39H9v5.1h5.07v1.39H9v7.57H7.46Z" transform="translate(-7.46 -11.26)"/></g><g class="e"><path class="f" d="M20,112.9h4.17c1.53,0,3.45,1.32,3.45,4.1,0,1.9-.76,3.71-2.66,4.35l3.2,6.62-1.39.67-3.47-7.18H21.54v6.88H20Zm1.55,7.18h2.27c1.34,0,2.18-1,2.18-3.08s-1-2.71-2.55-2.71h-1.9Z" transform="translate(-7.46 -11.26)"/><path class="f" d="M35.67,123.58l-1.2,5.07-1.53-.42,3.92-15.33h1.85l3.92,15.33-1.53.42-1.2-5.07ZM37.8,115h0L36,122.19h3.47Z" transform="translate(-7.46 -11.26)"/><path class="f" d="M56.45,127.21a5.83,5.83,0,0,1-3.59,1.34c-4,0-4.68-4.82-4.68-7.9,0-2.89.67-8,4.52-8a4.54,4.54,0,0,1,3.87,2.48L55.2,116a3,3,0,0,0-2.59-1.85c-2.57,0-2.8,4.73-2.8,6.56,0,5.3,1.55,6.39,3.08,6.39a3.44,3.44,0,0,0,2-.72v-4.66H52v-1.39h4.45Z" transform="translate(-7.46 -11.26)"/><path class="f" d="M69.18,112.9h1.95l.46,15.45H69.95l-.3-12.88h0L67,123.23l-2.64-7.76h0L64,128.35H62.35l.46-15.45h1.92L67,119.46Z" transform="translate(-7.46 -11.26)"/><path class="f" d="M78.24,112.9h7.53v1.39h-6v5.1h4.93v1.39H79.79V127h6v1.39H78.24Z" transform="translate(-7.46 -11.26)"/><path class="f" d="M92.11,112.9h1.95l4.59,13,0,0-.07-3.45v-9.5h1.55v15.45H98.23l-4.59-13,0,0,.07,3.5v9.47H92.11Z" transform="translate(-7.46 -11.26)"/></g><g class="e"><path class="f" d="M110,114.29h-3.33V112.9h8.15v1.39h-3.27v14.06H110Z" transform="translate(-7.46 -11.26)"/></g><g class="e"><path class="f" d="M125.19,116.42c-.25-1.13-.81-2.27-2.13-2.27s-2,1.18-2,2.48.25,1.64,2.69,3.1c1.9,1.13,3.2,2.08,3.2,4.47s-1.3,4.35-3.89,4.35-3.73-1.81-4-4.26l1.55-.21c.21,1.71.58,3,2.46,3,1.34,0,2.29-.9,2.29-2.76,0-2-1.32-2.73-2.92-3.66-1.78-1-3-1.78-3-4.05a3.69,3.69,0,0,1,3.59-3.94c2.18,0,3.24,1.55,3.64,3.5Z" transform="translate(-7.46 -11.26)"/></g></g><g class="e"><g class="e"><path class="c" d="M7.46,112.9h7.6v1.39H9v5.1h5.07v1.39H9v7.57H7.46Z" transform="translate(-7.46 -11.26)"/></g><g class="e"><path class="c" d="M20,112.9h4.17c1.53,0,3.45,1.32,3.45,4.1,0,1.9-.76,3.71-2.66,4.35l3.2,6.62-1.39.67-3.47-7.18H21.54v6.88H20Zm1.55,7.18h2.27c1.34,0,2.18-1,2.18-3.08s-1-2.71-2.55-2.71h-1.9Z" transform="translate(-7.46 -11.26)"/><path class="c" d="M35.67,123.58l-1.2,5.07-1.53-.42,3.92-15.33h1.85l3.92,15.33-1.53.42-1.2-5.07ZM37.8,115h0L36,122.19h3.47Z" transform="translate(-7.46 -11.26)"/><path class="c" d="M56.45,127.21a5.83,5.83,0,0,1-3.59,1.34c-4,0-4.68-4.82-4.68-7.9,0-2.89.67-8,4.52-8a4.54,4.54,0,0,1,3.87,2.48L55.2,116a3,3,0,0,0-2.59-1.85c-2.57,0-2.8,4.73-2.8,6.56,0,5.3,1.55,6.39,3.08,6.39a3.44,3.44,0,0,0,2-.72v-4.66H52v-1.39h4.45Z" transform="translate(-7.46 -11.26)"/><path class="c" d="M69.18,112.9h1.95l.46,15.45H69.95l-.3-12.88h0L67,123.23l-2.64-7.76h0L64,128.35H62.35l.46-15.45h1.92L67,119.46Z" transform="translate(-7.46 -11.26)"/><path class="c" d="M78.24,112.9h7.53v1.39h-6v5.1h4.93v1.39H79.79V127h6v1.39H78.24Z" transform="translate(-7.46 -11.26)"/><path class="c" d="M92.11,112.9h1.95l4.59,13,0,0-.07-3.45v-9.5h1.55v15.45H98.23l-4.59-13,0,0,.07,3.5v9.47H92.11Z" transform="translate(-7.46 -11.26)"/></g><g class="e"><path class="c" d="M110,114.29h-3.33V112.9h8.15v1.39h-3.27v14.06H110Z" transform="translate(-7.46 -11.26)"/></g><g class="e"><path class="c" d="M125.19,116.42c-.25-1.13-.81-2.27-2.13-2.27s-2,1.18-2,2.48.25,1.64,2.69,3.1c1.9,1.13,3.2,2.08,3.2,4.47s-1.3,4.35-3.89,4.35-3.73-1.81-4-4.26l1.55-.21c.21,1.71.58,3,2.46,3,1.34,0,2.29-.9,2.29-2.76,0-2-1.32-2.73-2.92-3.66-1.78-1-3-1.78-3-4.05a3.69,3.69,0,0,1,3.59-3.94c2.18,0,3.24,1.55,3.64,3.5Z" transform="translate(-7.46 -11.26)"/></g></g></svg>