<?xml version="1.0" encoding="UTF-8" standalone="no"?>
<svg width="28px" height="46px" viewBox="0 0 28 46" version="1.1" xmlns="http://www.w3.org/2000/svg" xmlns:xlink="http://www.w3.org/1999/xlink">
    <!-- Generator: Sketch 43.2 (39069) - http://www.bohemiancoding.com/sketch -->
    <title>speaker-icon</title>
    <desc>Created with Sketch.</desc>
    <defs>
        <linearGradient x1="50%" y1="0%" x2="50%" y2="100%" id="linearGradient-1">
            <stop stop-color="#FF512F" offset="0%"></stop>
            <stop stop-color="#F09819" offset="100%"></stop>
        </linearGradient>
    </defs>
    <g id="Page-2" stroke="none" stroke-width="1" fill="none" fill-rule="evenodd">
        <g id="speaker-icon" fill-rule="nonzero" fill="url(#linearGradient-1)">
            <g id="noun_182005_cc-copy-4">
                <path d="M16.8474576,9.15208333 C17.0372881,9.34375 17.1322034,9.58333333 17.1322034,9.82291667 L17.1322034,9.87083333 L17.1322034,9.87083333 C17.1322034,10.1583333 17.0372881,10.35 16.8474576,10.5416667 C16.6576271,10.7333333 16.420339,10.8291667 16.1830508,10.8291667 C15.8983051,10.8291667 15.7084746,10.7333333 15.5186441,10.5416667 C15.3288136,10.35 15.2338983,10.1583333 15.2338983,9.87083333 L15.2338983,9.87083333 C15.2338983,9.87083333 15.2338983,9.87083333 15.2338983,9.82291667 L15.2338983,9.775 C15.2338983,9.53541667 15.3288136,9.29583333 15.5186441,9.10416667 C15.7084746,8.9125 15.9457627,8.81666667 16.1830508,8.81666667 C16.4677966,8.86458333 16.7050847,8.96041667 16.8474576,9.15208333 Z M18.5084746,16.53125 C18.2237288,16.53125 18.0338983,16.6270833 17.8440678,16.81875 C17.7491525,16.9145833 17.7016949,17.0104167 17.6542373,17.10625 L19.3627119,17.10625 C19.3152542,17.0104167 19.2677966,16.9145833 19.1728814,16.81875 C18.9830508,16.6270833 18.7457627,16.53125 18.5084746,16.53125 Z M16.1830508,6.6125 C15.8983051,6.6125 15.7084746,6.70833333 15.5186441,6.9 C15.3288136,7.09166667 15.2338983,7.33125 15.2338983,7.57083333 L15.2338983,7.61875 C15.2338983,7.61875 15.2338983,7.61875 15.2338983,7.66666667 L15.2338983,7.66666667 C15.2338983,7.95416667 15.3288136,8.14583333 15.5186441,8.3375 C15.7084746,8.52916667 15.9457627,8.625 16.1830508,8.625 C16.420339,8.625 16.6576271,8.52916667 16.8474576,8.3375 C17.0372881,8.14583333 17.1322034,7.95416667 17.1322034,7.66666667 L17.1322034,7.66666667 L17.1322034,7.61875 C17.1322034,7.37916667 17.0372881,7.13958333 16.8474576,6.94791667 C16.7050847,6.70833333 16.4677966,6.6125 16.1830508,6.6125 Z M16.1830508,11.06875 C15.8983051,11.06875 15.7084746,11.1645833 15.5186441,11.35625 C15.3288136,11.5479167 15.2338983,11.7875 15.2338983,12.0270833 L15.2338983,12.075 C15.2338983,12.075 15.2338983,12.075 15.2338983,12.1229167 L15.2338983,12.1229167 C15.2338983,12.4104167 15.3288136,12.6020833 15.5186441,12.79375 C15.7084746,12.9854167 15.9457627,13.08125 16.1830508,13.08125 C16.420339,13.08125 16.6576271,12.9854167 16.8474576,12.79375 C17.0372881,12.6020833 17.1322034,12.4104167 17.1322034,12.1229167 L17.1322034,12.1229167 L17.1322034,12.075 C17.1322034,11.8354167 17.0372881,11.5958333 16.8474576,11.4041667 C16.7050847,11.2125 16.4677966,11.06875 16.1830508,11.06875 Z M16.1830508,15.5729167 C15.8983051,15.5729167 15.7084746,15.66875 15.5186441,15.8604167 C15.3288136,16.0520833 15.2338983,16.2916667 15.2338983,16.53125 L15.2338983,16.5791667 C15.2338983,16.5791667 15.2338983,16.5791667 15.2338983,16.6270833 L15.2338983,16.6270833 C15.2338983,16.81875 15.2813559,16.9625 15.3762712,17.1541667 L15.4237288,17.1541667 L16.8949153,17.1541667 L16.9423729,17.1541667 C17.0372881,17.0104167 17.0847458,16.81875 17.0847458,16.6270833 L17.0847458,16.6270833 L17.0847458,16.5791667 C17.0847458,16.3395833 16.9898305,16.1 16.8,15.9083333 C16.7050847,15.66875 16.4677966,15.5729167 16.1830508,15.5729167 Z M16.1830508,13.3208333 C15.8983051,13.3208333 15.7084746,13.4166667 15.5186441,13.6083333 C15.3288136,13.8 15.2338983,14.0395833 15.2338983,14.2791667 L15.2338983,14.3270833 C15.2338983,14.3270833 15.2338983,14.3270833 15.2338983,14.375 L15.2338983,14.375 C15.2338983,14.6625 15.3288136,14.8541667 15.5186441,15.0458333 C15.7084746,15.2375 15.9457627,15.3333333 16.1830508,15.3333333 C16.420339,15.3333333 16.6576271,15.2375 16.8474576,15.0458333 C17.0372881,14.8541667 17.1322034,14.6625 17.1322034,14.375 L17.1322034,14.375 L17.1322034,14.3270833 C17.1322034,14.0875 17.0372881,13.8479167 16.8474576,13.65625 C16.7050847,13.4166667 16.4677966,13.3208333 16.1830508,13.3208333 Z M18.5084746,7.61875 C18.2237288,7.61875 18.0338983,7.71458333 17.8440678,7.90625 C17.6542373,8.09791667 17.559322,8.3375 17.559322,8.57708333 L17.559322,8.625 C17.559322,8.625 17.559322,8.625 17.559322,8.67291667 L17.559322,8.67291667 C17.559322,8.96041667 17.6542373,9.15208333 17.8440678,9.34375 C18.0338983,9.4875 18.2237288,9.58333333 18.5084746,9.58333333 C18.7457627,9.58333333 18.9830508,9.4875 19.1728814,9.29583333 C19.3627119,9.10416667 19.4576271,8.9125 19.4576271,8.625 L19.4576271,8.625 L19.4576271,8.57708333 C19.4576271,8.3375 19.3627119,8.09791667 19.1728814,7.90625 C18.9830508,7.71458333 18.7457627,7.61875 18.5084746,7.61875 Z M18.5084746,5.36666667 C18.2237288,5.36666667 18.0338983,5.4625 17.8440678,5.65416667 C17.6542373,5.84583333 17.559322,6.08541667 17.559322,6.325 L17.559322,6.37291667 C17.559322,6.37291667 17.559322,6.37291667 17.559322,6.42083333 L17.559322,6.42083333 C17.559322,6.70833333 17.6542373,6.9 17.8440678,7.09166667 C18.0338983,7.28333333 18.2711864,7.37916667 18.5084746,7.37916667 C18.7457627,7.37916667 18.9830508,7.28333333 19.1728814,7.09166667 C19.3627119,6.9 19.4576271,6.70833333 19.4576271,6.42083333 L19.4576271,6.42083333 L19.4576271,6.37291667 C19.4576271,6.13333333 19.3627119,5.89375 19.1728814,5.70208333 C18.9830508,5.4625 18.7457627,5.36666667 18.5084746,5.36666667 Z M14.0949153,16.53125 C13.8101695,16.53125 13.620339,16.6270833 13.4305085,16.81875 C13.3355932,16.9145833 13.2881356,17.0104167 13.240678,17.10625 L14.9491525,17.10625 C14.9016949,17.0104167 14.8542373,16.9145833 14.759322,16.81875 C14.5694915,16.6270833 14.3322034,16.53125 14.0949153,16.53125 Z M18.5084746,14.3270833 C18.2237288,14.3270833 18.0338983,14.4229167 17.8440678,14.6145833 C17.6542373,14.80625 17.559322,15.0458333 17.559322,15.2854167 L17.559322,15.3333333 C17.559322,15.3333333 17.559322,15.3333333 17.559322,15.38125 L17.559322,15.38125 C17.559322,15.66875 17.6542373,15.8604167 17.8440678,16.0520833 C18.0338983,16.1958333 18.2237288,16.2916667 18.5084746,16.2916667 C18.7457627,16.2916667 18.9830508,16.1958333 19.1728814,16.0041667 C19.3627119,15.8125 19.4576271,15.6208333 19.4576271,15.3333333 L19.4576271,15.3333333 L19.4576271,15.2854167 C19.4576271,15.0458333 19.3627119,14.80625 19.1728814,14.6145833 C18.9830508,14.4229167 18.7457627,14.3270833 18.5084746,14.3270833 Z M18.5084746,12.075 C18.2237288,12.075 18.0338983,12.1708333 17.8440678,12.3625 C17.6542373,12.5541667 17.559322,12.79375 17.559322,13.0333333 L17.559322,13.08125 C17.559322,13.08125 17.559322,13.08125 17.559322,13.1291667 L17.559322,13.1291667 C17.559322,13.4166667 17.6542373,13.6083333 17.8440678,13.8 C18.0338983,13.9916667 18.2711864,14.0875 18.5084746,14.0875 C18.7457627,14.0875 18.9830508,13.9916667 19.1728814,13.8 C19.3627119,13.6083333 19.4576271,13.4166667 19.4576271,13.1291667 L19.4576271,13.1291667 L19.4576271,13.08125 C19.4576271,12.8416667 19.3627119,12.6020833 19.1728814,12.4104167 C18.9830508,12.1708333 18.7457627,12.075 18.5084746,12.075 Z M18.5084746,9.82291667 C18.2237288,9.82291667 18.0338983,9.91875 17.8440678,10.1104167 C17.6542373,10.3020833 17.559322,10.5416667 17.559322,10.78125 L17.559322,10.8291667 C17.559322,10.8291667 17.559322,10.8291667 17.559322,10.8770833 L17.559322,10.8770833 C17.559322,11.1645833 17.6542373,11.35625 17.8440678,11.5479167 C18.0338983,11.7395833 18.2711864,11.8354167 18.5084746,11.8354167 C18.7457627,11.8354167 18.9830508,11.7395833 19.1728814,11.5479167 C19.3627119,11.35625 19.4576271,11.1645833 19.4576271,10.8770833 L19.4576271,10.8770833 L19.4576271,10.8291667 C19.4576271,10.5895833 19.3627119,10.35 19.1728814,10.1583333 C18.9830508,9.91875 18.7457627,9.82291667 18.5084746,9.82291667 Z M11.7694915,8.86458333 C11.4847458,8.86458333 11.2949153,8.96041667 11.1050847,9.15208333 C10.9152542,9.34375 10.820339,9.58333333 10.820339,9.82291667 L10.820339,9.87083333 L10.820339,9.91875 C10.820339,10.20625 10.9152542,10.3979167 11.1050847,10.5895833 C11.2949153,10.78125 11.5322034,10.8770833 11.7694915,10.8770833 C12.0067797,10.8770833 12.2440678,10.78125 12.4338983,10.5895833 C12.6237288,10.3979167 12.7186441,10.20625 12.7186441,9.91875 L12.7186441,9.91875 L12.7186441,9.87083333 C12.7186441,9.63125 12.6237288,9.39166667 12.4338983,9.2 C12.2440678,8.96041667 12.0542373,8.86458333 11.7694915,8.86458333 Z M9.63389831,9.82291667 C9.34915254,9.82291667 9.15932203,9.91875 8.96949153,10.1104167 C8.77966102,10.3020833 8.68474576,10.5416667 8.68474576,10.78125 L8.68474576,10.8291667 L8.68474576,10.8770833 C8.68474576,11.1645833 8.77966102,11.35625 8.96949153,11.5479167 C9.15932203,11.7395833 9.39661017,11.8354167 9.63389831,11.8354167 C9.87118644,11.8354167 10.1084746,11.7395833 10.2983051,11.5479167 C10.4881356,11.35625 10.5830508,11.1645833 10.5830508,10.8770833 L10.5830508,10.8770833 L10.5830508,10.8291667 C10.5830508,10.5895833 10.4881356,10.35 10.2983051,10.1583333 C10.1559322,9.91875 9.91864407,9.82291667 9.63389831,9.82291667 Z M9.63389831,7.61875 C9.34915254,7.61875 9.15932203,7.71458333 8.96949153,7.90625 C8.77966102,8.09791667 8.68474576,8.3375 8.68474576,8.57708333 L8.68474576,8.625 L8.68474576,8.67291667 C8.68474576,8.96041667 8.77966102,9.15208333 8.96949153,9.34375 C9.15932203,9.53541667 9.39661017,9.63125 9.63389831,9.63125 C9.87118644,9.63125 10.1084746,9.53541667 10.2983051,9.34375 C10.4881356,9.15208333 10.5830508,8.96041667 10.5830508,8.67291667 L10.5830508,8.67291667 L10.5830508,8.625 C10.5830508,8.38541667 10.4881356,8.14583333 10.2983051,7.95416667 C10.1559322,7.71458333 9.91864407,7.61875 9.63389831,7.61875 Z M9.63389831,14.3270833 C9.34915254,14.3270833 9.15932203,14.4229167 8.96949153,14.6145833 C8.77966102,14.80625 8.68474576,15.0458333 8.68474576,15.2854167 L8.68474576,15.3333333 L8.68474576,15.38125 C8.68474576,15.66875 8.77966102,15.8604167 8.96949153,16.0520833 C9.15932203,16.24375 9.39661017,16.3395833 9.63389831,16.3395833 C9.87118644,16.3395833 10.1084746,16.24375 10.2983051,16.0520833 C10.4881356,15.8604167 10.5830508,15.66875 10.5830508,15.38125 L10.5830508,15.38125 L10.5830508,15.3333333 C10.5830508,15.09375 10.4881356,14.8541667 10.2983051,14.6625 C10.1559322,14.4229167 9.91864407,14.3270833 9.63389831,14.3270833 Z M9.63389831,5.36666667 C9.34915254,5.36666667 9.15932203,5.4625 8.96949153,5.65416667 C8.77966102,5.84583333 8.68474576,6.08541667 8.68474576,6.325 L8.68474576,6.37291667 L8.68474576,6.42083333 C8.68474576,6.70833333 8.77966102,6.9 8.96949153,7.09166667 C9.15932203,7.28333333 9.39661017,7.37916667 9.63389831,7.37916667 C9.87118644,7.37916667 10.1084746,7.28333333 10.2983051,7.09166667 C10.4881356,6.9 10.5830508,6.70833333 10.5830508,6.42083333 L10.5830508,6.42083333 L10.5830508,6.37291667 C10.5830508,6.13333333 10.4881356,5.89375 10.2983051,5.70208333 C10.1559322,5.4625 9.91864407,5.36666667 9.63389831,5.36666667 Z M9.63389831,12.075 C9.34915254,12.075 9.15932203,12.1708333 8.96949153,12.3625 C8.77966102,12.5541667 8.68474576,12.79375 8.68474576,13.0333333 L8.68474576,13.08125 L8.68474576,13.1291667 C8.68474576,13.4166667 8.77966102,13.6083333 8.96949153,13.8 C9.15932203,13.9916667 9.39661017,14.0875 9.63389831,14.0875 C9.87118644,14.0875 10.1084746,13.9916667 10.2983051,13.8 C10.4881356,13.6083333 10.5830508,13.4166667 10.5830508,13.1291667 L10.5830508,13.1291667 L10.5830508,13.08125 C10.5830508,12.8416667 10.4881356,12.6020833 10.2983051,12.4104167 C10.1559322,12.1708333 9.91864407,12.075 9.63389831,12.075 Z M11.7694915,13.3208333 C11.4847458,13.3208333 11.2949153,13.4166667 11.1050847,13.6083333 C10.9152542,13.8 10.820339,14.0395833 10.820339,14.2791667 L10.820339,14.3270833 L10.820339,14.375 C10.820339,14.6625 10.9152542,14.8541667 11.1050847,15.0458333 C11.2949153,15.2375 11.5322034,15.3333333 11.7694915,15.3333333 C12.0067797,15.3333333 12.2440678,15.2375 12.4338983,15.0458333 C12.6237288,14.8541667 12.7186441,14.6625 12.7186441,14.375 L12.7186441,14.375 L12.7186441,14.3270833 C12.7186441,14.0875 12.6237288,13.8479167 12.4338983,13.65625 C12.2440678,13.4166667 12.0542373,13.3208333 11.7694915,13.3208333 Z M11.7694915,15.5729167 C11.4847458,15.5729167 11.2949153,15.66875 11.1050847,15.8604167 C10.9152542,16.0520833 10.820339,16.2916667 10.820339,16.53125 L10.820339,16.5791667 L10.820339,16.6270833 C10.820339,16.81875 10.8677966,16.9625 10.9627119,17.1541667 L11.0101695,17.1541667 L12.4813559,17.1541667 L12.5288136,17.1541667 C12.6237288,17.0104167 12.6711864,16.81875 12.6711864,16.6270833 L12.6711864,16.6270833 L12.6711864,16.5791667 C12.6711864,16.3395833 12.5762712,16.1 12.3864407,15.9083333 C12.2440678,15.66875 12.0542373,15.5729167 11.7694915,15.5729167 Z M9.63389831,16.53125 C9.34915254,16.53125 9.15932203,16.6270833 8.96949153,16.81875 C8.87457627,16.9145833 8.82711864,17.0104167 8.77966102,17.10625 L10.4881356,17.10625 C10.440678,17.0104167 10.3932203,16.9145833 10.2983051,16.81875 C10.1559322,16.6270833 9.91864407,16.53125 9.63389831,16.53125 Z M11.7694915,6.6125 C11.4847458,6.6125 11.2949153,6.70833333 11.1050847,6.9 C10.9152542,7.09166667 10.820339,7.33125 10.820339,7.57083333 L10.820339,7.61875 L10.820339,7.66666667 C10.820339,7.95416667 10.9152542,8.14583333 11.1050847,8.3375 C11.2949153,8.52916667 11.5322034,8.625 11.7694915,8.625 C12.0067797,8.625 12.2440678,8.52916667 12.4338983,8.3375 C12.6237288,8.14583333 12.7186441,7.95416667 12.7186441,7.66666667 L12.7186441,7.66666667 L12.7186441,7.61875 C12.7186441,7.37916667 12.6237288,7.13958333 12.4338983,6.94791667 C12.2440678,6.70833333 12.0542373,6.6125 11.7694915,6.6125 Z M11.7694915,11.06875 C11.4847458,11.06875 11.2949153,11.1645833 11.1050847,11.35625 C10.9152542,11.5479167 10.820339,11.7875 10.820339,12.0270833 L10.820339,12.075 L10.820339,12.1229167 C10.820339,12.4104167 10.9152542,12.6020833 11.1050847,12.79375 C11.2949153,12.9854167 11.5322034,13.08125 11.7694915,13.08125 C12.0067797,13.08125 12.2440678,12.9854167 12.4338983,12.79375 C12.6237288,12.6020833 12.7186441,12.4104167 12.7186441,12.1229167 L12.7186441,12.1229167 L12.7186441,12.075 C12.7186441,11.8354167 12.6237288,11.5958333 12.4338983,11.4041667 C12.2440678,11.2125 12.0542373,11.06875 11.7694915,11.06875 Z M11.7694915,4.40833333 C11.4847458,4.40833333 11.2949153,4.50416667 11.1050847,4.69583333 C10.9152542,4.8875 10.820339,5.12708333 10.820339,5.36666667 L10.820339,5.41458333 L10.820339,5.4625 C10.820339,5.75 10.9152542,5.94166667 11.1050847,6.13333333 C11.2949153,6.325 11.5322034,6.42083333 11.7694915,6.42083333 C12.0067797,6.42083333 12.2440678,6.325 12.4338983,6.13333333 C12.6237288,5.94166667 12.7186441,5.75 12.7186441,5.4625 L12.7186441,5.4625 L12.7186441,5.41458333 C12.7186441,5.175 12.6237288,4.93541667 12.4338983,4.74375 C12.2440678,4.50416667 12.0542373,4.40833333 11.7694915,4.40833333 Z M20.4067797,11.35625 C20.2644068,11.35625 20.1220339,11.4520833 19.979661,11.64375 C19.8847458,11.8354167 19.8372881,12.075 19.8372881,12.3145833 C19.8372881,12.3145833 19.8372881,12.3145833 19.8372881,12.3625 C19.8372881,12.3625 19.8372881,12.3625 19.8372881,12.4104167 C19.8372881,12.4104167 19.8372881,12.4104167 19.8372881,12.4583333 C19.8372881,12.6979167 19.8847458,12.9375 19.979661,13.1291667 C20.0745763,13.3208333 20.2169492,13.4166667 20.4067797,13.4166667 C20.5491525,13.4166667 20.6915254,13.3208333 20.8338983,13.1291667 C20.9288136,12.9375 21.0237288,12.6979167 21.0237288,12.4583333 L21.0237288,12.4104167 L21.0237288,12.3625 C21.0237288,12.075 20.9762712,11.8833333 20.8338983,11.6916667 C20.6915254,11.4520833 20.5491525,11.35625 20.4067797,11.35625 Z M7.8779661,6.27708333 C8.02033898,6.37291667 8.16271186,6.325 8.35254237,6.22916667 C8.49491525,6.13333333 8.63728814,5.98958333 8.77966102,5.79791667 C8.77966102,5.75 8.82711864,5.75 8.82711864,5.70208333 C8.82711864,5.65416667 8.82711864,5.65416667 8.87457627,5.65416667 C9.01694915,5.41458333 9.06440678,5.175 9.06440678,4.98333333 C9.06440678,4.74375 8.96949153,4.6 8.87457627,4.55208333 C8.73220339,4.45625 8.58983051,4.50416667 8.4,4.6 C8.21016949,4.69583333 8.06779661,4.8875 7.92542373,5.07916667 L7.92542373,5.12708333 C7.92542373,5.12708333 7.92542373,5.12708333 7.92542373,5.175 L7.92542373,5.175 L7.92542373,5.175 C7.78305085,5.41458333 7.73559322,5.60625 7.73559322,5.84583333 C7.68813559,6.0375 7.73559322,6.18125 7.8779661,6.27708333 Z M9.53898305,4.3125 C9.72881356,4.3125 9.96610169,4.26458333 10.2033898,4.12083333 L10.2033898,4.12083333 C10.2508475,4.12083333 10.2508475,4.07291667 10.2508475,4.07291667 C10.4881356,3.92916667 10.6305085,3.78541667 10.7254237,3.59375 C10.820339,3.40208333 10.820339,3.25833333 10.7728814,3.11458333 C10.7254237,2.97083333 10.5830508,2.875 10.3457627,2.875 C10.1084746,2.875 9.91864407,2.92291667 9.68135593,3.06666667 C9.68135593,3.06666667 9.63389831,3.06666667 9.63389831,3.11458333 L9.63389831,3.11458333 L9.63389831,3.11458333 C9.63389831,3.11458333 9.63389831,3.11458333 9.58644068,3.11458333 C9.34915254,3.25833333 9.20677966,3.40208333 9.11186441,3.59375 C9.01694915,3.78541667 8.96949153,3.92916667 9.06440678,4.07291667 C9.15932203,4.21666667 9.30169492,4.3125 9.53898305,4.3125 Z M11.4847458,3.06666667 C11.6745763,3.11458333 11.9118644,3.11458333 12.1966102,3.06666667 L12.1966102,3.06666667 L12.1966102,3.06666667 L12.2440678,3.06666667 C12.4813559,3.01875 12.7186441,2.875 12.8610169,2.73125 C13.0033898,2.5875 13.0508475,2.44375 13.0033898,2.25208333 C12.9559322,2.10833333 12.8610169,1.96458333 12.6237288,1.91666667 C12.4338983,1.86875 12.1966102,1.86875 11.959322,1.91666667 L11.9118644,1.91666667 L11.8644068,1.91666667 C11.6271186,1.96458333 11.3898305,2.10833333 11.2949153,2.25208333 C11.1525424,2.39583333 11.1050847,2.5875 11.1050847,2.73125 C11.1525424,2.92291667 11.2949153,3.01875 11.4847458,3.06666667 Z M14.0949153,16.2916667 C14.3322034,16.2916667 14.5694915,16.1958333 14.759322,16.0041667 C14.9491525,15.8125 15.0440678,15.6208333 15.0440678,15.3333333 L15.0440678,15.3333333 L15.0440678,15.2854167 C15.0440678,15.0458333 14.9491525,14.80625 14.759322,14.6145833 C14.5694915,14.4229167 14.3322034,14.3270833 14.0949153,14.3270833 C13.8101695,14.3270833 13.620339,14.4229167 13.4305085,14.6145833 C13.240678,14.80625 13.1457627,15.0458333 13.1457627,15.2854167 L13.1457627,15.3333333 C13.1457627,15.3333333 13.1457627,15.3333333 13.1457627,15.38125 L13.1457627,15.38125 C13.1457627,15.66875 13.240678,15.8604167 13.4305085,16.0520833 C13.5728814,16.1958333 13.8101695,16.2916667 14.0949153,16.2916667 Z M7.73559322,8.625 C7.8779661,8.625 8.02033898,8.52916667 8.11525424,8.3375 C8.21016949,8.14583333 8.30508475,7.95416667 8.30508475,7.66666667 L8.30508475,7.66666667 L8.30508475,7.61875 C8.30508475,7.37916667 8.25762712,7.13958333 8.11525424,6.94791667 C8.02033898,6.75625 7.8779661,6.66041667 7.73559322,6.66041667 C7.59322034,6.66041667 7.45084746,6.75625 7.30847458,6.94791667 C7.21355932,7.13958333 7.11864407,7.37916667 7.11864407,7.61875 L7.11864407,7.66666667 C7.11864407,7.66666667 7.11864407,7.66666667 7.11864407,7.71458333 L7.11864407,7.71458333 C7.11864407,8.00208333 7.16610169,8.19375 7.30847458,8.38541667 C7.45084746,8.52916667 7.59322034,8.625 7.73559322,8.625 Z M7.30847458,12.79375 C7.45084746,12.9854167 7.54576271,13.08125 7.73559322,13.08125 C7.8779661,13.08125 8.06779661,12.9854167 8.16271186,12.79375 C8.30508475,12.6020833 8.35254237,12.4104167 8.35254237,12.1229167 L8.35254237,12.1229167 L8.35254237,12.075 C8.35254237,11.8354167 8.30508475,11.5958333 8.16271186,11.4041667 C8.06779661,11.2125 7.8779661,11.1166667 7.73559322,11.1166667 C7.54576271,11.1166667 7.40338983,11.2125 7.30847458,11.4041667 C7.21355932,11.5958333 7.11864407,11.8354167 7.11864407,12.075 L7.11864407,12.1229167 L7.11864407,12.1708333 C7.11864407,12.4104167 7.21355932,12.6020833 7.30847458,12.79375 Z M7.21355932,17.10625 L7.21355932,17.10625 L8.21016949,17.10625 L8.25762712,17.10625 C8.30508475,16.9625 8.35254237,16.7708333 8.35254237,16.5791667 L8.35254237,16.5791667 L8.35254237,16.53125 C8.35254237,16.2916667 8.30508475,16.0520833 8.16271186,15.8604167 C8.06779661,15.66875 7.8779661,15.5729167 7.73559322,15.5729167 C7.54576271,15.5729167 7.40338983,15.66875 7.30847458,15.8604167 C7.21355932,16.0520833 7.11864407,16.2916667 7.11864407,16.53125 L7.11864407,16.5791667 L7.11864407,16.6270833 C7.11864407,16.7708333 7.16610169,16.9625 7.21355932,17.10625 Z M20.4067797,15.95625 C20.2644068,15.95625 20.1220339,16.0520833 19.979661,16.24375 C19.8847458,16.4354167 19.8372881,16.675 19.8372881,16.9145833 L19.8372881,16.9625 C19.8372881,16.9625 19.8372881,16.9625 19.8372881,17.0104167 C19.8372881,17.0104167 19.8372881,17.0104167 19.8372881,17.0583333 L19.8372881,17.10625 L20.9762712,17.10625 L20.9762712,17.10625 L20.9762712,17.0583333 C20.9762712,17.0583333 20.9762712,17.0583333 20.9762712,17.0104167 L20.9762712,16.9625 C20.9762712,16.675 20.9288136,16.4833333 20.7864407,16.2916667 C20.6915254,16.0520833 20.5491525,15.95625 20.4067797,15.95625 Z M7.73559322,8.86458333 C7.59322034,8.86458333 7.45084746,8.96041667 7.3559322,9.15208333 C7.26101695,9.34375 7.21355932,9.58333333 7.21355932,9.82291667 L7.21355932,9.87083333 C7.21355932,9.87083333 7.21355932,9.87083333 7.21355932,9.91875 L7.21355932,9.91875 C7.21355932,10.20625 7.26101695,10.3979167 7.3559322,10.5895833 C7.45084746,10.78125 7.59322034,10.8770833 7.73559322,10.8770833 C7.8779661,10.8770833 8.02033898,10.78125 8.11525424,10.5895833 C8.21016949,10.3979167 8.25762712,10.20625 8.25762712,9.91875 L8.25762712,9.91875 L8.25762712,9.87083333 C8.25762712,9.63125 8.21016949,9.39166667 8.11525424,9.2 C8.02033898,8.96041667 7.8779661,8.86458333 7.73559322,8.86458333 Z M7.73559322,15.3333333 C7.92542373,15.3333333 8.06779661,15.2375 8.21016949,15.0458333 C8.35254237,14.8541667 8.4,14.6625 8.4,14.375 L8.4,14.375 L8.4,14.3270833 C8.4,14.0875 8.35254237,13.8479167 8.21016949,13.65625 C8.06779661,13.4645833 7.92542373,13.36875 7.73559322,13.36875 C7.54576271,13.36875 7.40338983,13.4645833 7.26101695,13.65625 C7.11864407,13.8479167 7.07118644,14.0875 7.07118644,14.3270833 L7.07118644,14.375 C7.07118644,14.375 7.07118644,14.375 7.07118644,14.4229167 L7.07118644,14.4229167 C7.07118644,14.7104167 7.11864407,14.9020833 7.26101695,15.09375 C7.40338983,15.2375 7.54576271,15.3333333 7.73559322,15.3333333 Z M14.0949153,14.0875 C14.3322034,14.0875 14.5694915,13.9916667 14.759322,13.8 C14.9491525,13.6083333 15.0440678,13.4166667 15.0440678,13.1291667 L15.0440678,13.1291667 L15.0440678,13.08125 C15.0440678,12.8416667 14.9491525,12.6020833 14.759322,12.4104167 C14.5694915,12.21875 14.3322034,12.1229167 14.0949153,12.1229167 C13.8101695,12.1229167 13.620339,12.21875 13.4305085,12.4104167 C13.240678,12.6020833 13.1457627,12.8416667 13.1457627,13.08125 L13.1457627,13.1291667 C13.1457627,13.1291667 13.1457627,13.1291667 13.1457627,13.1770833 L13.1457627,13.1770833 C13.1457627,13.4645833 13.240678,13.65625 13.4305085,13.8479167 C13.5728814,13.94375 13.8101695,14.0875 14.0949153,14.0875 Z M20.3118644,8.52916667 C20.4542373,8.52916667 20.5966102,8.43333333 20.7389831,8.24166667 C20.8338983,8.05 20.8813559,7.85833333 20.8813559,7.57083333 L20.8813559,7.57083333 L20.8813559,7.52291667 C20.8813559,7.28333333 20.8338983,7.04375 20.7389831,6.85208333 C20.6440678,6.66041667 20.5016949,6.56458333 20.3118644,6.56458333 C20.1694915,6.56458333 20.0271186,6.66041667 19.8847458,6.85208333 C19.7898305,7.04375 19.7423729,7.28333333 19.7423729,7.52291667 L19.7423729,7.57083333 C19.7423729,7.57083333 19.7423729,7.57083333 19.7423729,7.61875 L19.7423729,7.61875 C19.7423729,7.90625 19.7898305,8.09791667 19.8847458,8.28958333 C20.0271186,8.43333333 20.1694915,8.52916667 20.3118644,8.52916667 Z M18.4610169,4.83958333 C18.4610169,4.83958333 18.4610169,4.8875 18.4610169,4.83958333 L18.5084746,4.8875 C18.6983051,5.07916667 18.8881356,5.175 19.0779661,5.22291667 C19.2677966,5.27083333 19.4576271,5.22291667 19.5525424,5.12708333 C19.6474576,5.03125 19.6949153,4.83958333 19.6474576,4.64791667 C19.6,4.45625 19.4576271,4.26458333 19.3152542,4.07291667 L19.3152542,4.07291667 L19.2677966,4.025 C19.0779661,3.83333333 18.8881356,3.68958333 18.6508475,3.68958333 C18.4610169,3.64166667 18.3186441,3.68958333 18.1762712,3.78541667 C18.0813559,3.88125 18.0338983,4.07291667 18.0813559,4.26458333 C18.1288136,4.45625 18.2711864,4.64791667 18.4610169,4.83958333 Z M20.4067797,13.8 C20.2644068,13.8 20.1220339,13.8958333 19.979661,14.0875 C19.8847458,14.2791667 19.8372881,14.51875 19.8372881,14.7583333 L19.8372881,14.80625 C19.8372881,14.80625 19.8372881,14.80625 19.8372881,14.8541667 C19.8372881,14.8541667 19.8372881,14.8541667 19.8372881,14.9020833 C19.8372881,15.1416667 19.8847458,15.38125 19.979661,15.5729167 C20.0745763,15.7645833 20.2169492,15.8604167 20.4067797,15.8604167 C20.5491525,15.8604167 20.6915254,15.7645833 20.8338983,15.5729167 C20.9288136,15.38125 21.0237288,15.1416667 21.0237288,14.9020833 C21.0237288,14.9020833 21.0237288,14.9020833 21.0237288,14.8541667 L21.0237288,14.80625 C21.0237288,14.51875 20.9762712,14.3270833 20.8338983,14.1354167 C20.6915254,13.8958333 20.5491525,13.8 20.4067797,13.8 Z M14.0949153,11.8354167 C14.3322034,11.8354167 14.5694915,11.7395833 14.759322,11.5479167 C14.9491525,11.35625 15.0440678,11.1645833 15.0440678,10.8770833 L15.0440678,10.8770833 L15.0440678,10.8291667 C15.0440678,10.5895833 14.9491525,10.35 14.759322,10.1583333 C14.5694915,9.96666667 14.3322034,9.87083333 14.0949153,9.87083333 C13.8101695,9.87083333 13.620339,9.96666667 13.4305085,10.1583333 C13.240678,10.35 13.1457627,10.5895833 13.1457627,10.8291667 L13.1457627,10.8770833 C13.1457627,10.8770833 13.1457627,10.8770833 13.1457627,10.925 L13.1457627,10.925 C13.1457627,11.2125 13.240678,11.4041667 13.4305085,11.5958333 C13.5728814,11.7395833 13.8101695,11.8354167 14.0949153,11.8354167 Z M20.4067797,8.96041667 C20.2644068,8.96041667 20.1220339,9.05625 19.979661,9.24791667 C19.8847458,9.43958333 19.8372881,9.67916667 19.8372881,9.91875 L19.8372881,9.96666667 C19.8372881,9.96666667 19.8372881,9.96666667 19.8372881,10.0145833 C19.8372881,10.0145833 19.8372881,10.0145833 19.8372881,10.0625 C19.8372881,10.3020833 19.8847458,10.5416667 19.979661,10.7333333 C20.0745763,10.925 20.2169492,11.0208333 20.4067797,11.0208333 C20.5491525,11.0208333 20.6915254,10.925 20.8338983,10.7333333 C20.9288136,10.5416667 21.0237288,10.3020833 21.0237288,10.0625 C21.0237288,10.0625 21.0237288,10.0625 21.0237288,10.0145833 L21.0237288,9.96666667 C21.0237288,9.67916667 20.9762712,9.4875 20.8338983,9.29583333 C20.6915254,9.05625 20.5491525,8.96041667 20.4067797,8.96041667 Z M16.7050847,3.54583333 C16.7050847,3.59375 16.7050847,3.59375 16.7050847,3.54583333 L16.7525424,3.59375 L16.7525424,3.59375 L16.7525424,3.59375 C16.9898305,3.7375 17.179661,3.78541667 17.4169492,3.78541667 C17.6542373,3.78541667 17.7966102,3.7375 17.8440678,3.59375 C17.9389831,3.45 17.8915254,3.25833333 17.7966102,3.11458333 C17.7016949,2.92291667 17.559322,2.77916667 17.3220339,2.63541667 C17.3220339,2.63541667 17.3220339,2.63541667 17.2745763,2.63541667 C17.2271186,2.63541667 17.2271186,2.5875 17.2271186,2.5875 C17.0372881,2.44375 16.8,2.39583333 16.6101695,2.39583333 C16.420339,2.39583333 16.2305085,2.49166667 16.1830508,2.5875 C16.0881356,2.73125 16.1355932,2.875 16.2305085,3.06666667 C16.2779661,3.25833333 16.4677966,3.45 16.7050847,3.54583333 Z M14.0949153,9.58333333 C14.3322034,9.58333333 14.5694915,9.4875 14.759322,9.29583333 C14.9491525,9.10416667 15.0440678,8.9125 15.0440678,8.625 L15.0440678,8.625 L15.0440678,8.57708333 C15.0440678,8.3375 14.9491525,8.09791667 14.759322,7.90625 C14.5694915,7.71458333 14.3322034,7.61875 14.0949153,7.61875 C13.8101695,7.61875 13.620339,7.71458333 13.4305085,7.90625 C13.240678,8.09791667 13.1457627,8.3375 13.1457627,8.57708333 L13.1457627,8.625 C13.1457627,8.625 13.1457627,8.625 13.1457627,8.67291667 L13.1457627,8.67291667 C13.1457627,8.96041667 13.240678,9.15208333 13.4305085,9.34375 C13.5728814,9.4875 13.8101695,9.58333333 14.0949153,9.58333333 Z M14.0949153,7.37916667 C14.3322034,7.37916667 14.5694915,7.28333333 14.759322,7.09166667 C14.9491525,6.9 15.0440678,6.70833333 15.0440678,6.42083333 L15.0440678,6.42083333 L15.0440678,6.37291667 C15.0440678,6.13333333 14.9491525,5.89375 14.759322,5.70208333 C14.5694915,5.51041667 14.3322034,5.41458333 14.0949153,5.41458333 C13.8101695,5.41458333 13.620339,5.51041667 13.4305085,5.70208333 C13.240678,5.89375 13.1457627,6.13333333 13.1457627,6.37291667 L13.1457627,6.42083333 C13.1457627,6.42083333 13.1457627,6.42083333 13.1457627,6.46875 L13.1457627,6.46875 C13.1457627,6.75625 13.240678,6.94791667 13.4305085,7.13958333 C13.5728814,7.28333333 13.8101695,7.37916667 14.0949153,7.37916667 Z M15.2338983,5.36666667 C15.2338983,5.41458333 15.2338983,5.41458333 15.2338983,5.36666667 C15.2338983,5.41458333 15.2338983,5.41458333 15.2338983,5.36666667 C15.2338983,5.70208333 15.3288136,5.89375 15.5186441,6.08541667 C15.7084746,6.27708333 15.9457627,6.37291667 16.1830508,6.37291667 C16.420339,6.37291667 16.6576271,6.27708333 16.8474576,6.08541667 C17.0372881,5.89375 17.1322034,5.70208333 17.1322034,5.41458333 L17.1322034,5.41458333 L17.1322034,5.36666667 C17.1322034,5.12708333 17.0372881,4.8875 16.8474576,4.69583333 C16.6576271,4.50416667 16.420339,4.40833333 16.1830508,4.40833333 C15.8983051,4.40833333 15.7084746,4.50416667 15.5186441,4.69583333 C15.3288136,4.83958333 15.2338983,5.07916667 15.2338983,5.36666667 L15.2338983,5.36666667 Z M14.3322034,2.82708333 L14.3322034,2.82708333 C14.379661,2.82708333 14.379661,2.82708333 14.4271186,2.875 C14.6644068,2.92291667 14.9016949,2.92291667 15.1389831,2.875 C15.3288136,2.82708333 15.4711864,2.68333333 15.5186441,2.53958333 C15.5661017,2.39583333 15.5186441,2.25208333 15.3762712,2.06041667 C15.1864407,1.91666667 14.9966102,1.82083333 14.7118644,1.725 L14.7118644,1.725 L14.6644068,1.725 C14.4271186,1.67708333 14.1898305,1.67708333 13.9525424,1.725 C13.7627119,1.77291667 13.620339,1.86875 13.5728814,2.06041667 C13.5254237,2.20416667 13.5728814,2.34791667 13.7627119,2.53958333 C13.9050847,2.63541667 14.0949153,2.73125 14.3322034,2.82708333 Z M14.0949153,5.12708333 C14.3322034,5.12708333 14.5694915,5.03125 14.759322,4.83958333 C14.9491525,4.64791667 15.0440678,4.45625 15.0440678,4.16875 L15.0440678,4.16875 L15.0440678,4.12083333 C15.0440678,3.88125 14.9491525,3.64166667 14.759322,3.45 C14.5694915,3.25833333 14.3322034,3.1625 14.0949153,3.1625 C13.8101695,3.1625 13.620339,3.25833333 13.4305085,3.45 C13.240678,3.64166667 13.1457627,3.88125 13.1457627,4.12083333 L13.1457627,4.16875 C13.1457627,4.16875 13.1457627,4.16875 13.1457627,4.21666667 L13.1457627,4.21666667 C13.1457627,4.50416667 13.240678,4.69583333 13.4305085,4.8875 C13.5728814,5.03125 13.8101695,5.12708333 14.0949153,5.12708333 Z M27.7627119,18.4479167 L27.7627119,20.9875 C27.7627119,21.0833333 27.6677966,21.1791667 27.5728814,21.1791667 L26.2915254,21.1791667 L26.2915254,26.4020833 C26.2915254,29.8041667 25.1050847,32.7270833 22.6847458,35.1229167 L22.6847458,35.1229167 C20.8338983,36.9916667 18.6983051,38.1416667 16.2779661,38.5729167 L16.2779661,41.8791667 L23.0644068,41.8791667 C23.6813559,41.8791667 24.2508475,42.11875 24.6779661,42.55 C25.1050847,42.98125 25.3423729,43.55625 25.3423729,44.1791667 L25.3423729,45.7604167 L2.51525424,45.7604167 L2.51525424,44.2270833 C2.51525424,43.55625 2.75254237,42.9333333 3.22711864,42.5020833 C3.65423729,42.0708333 4.17627119,41.8791667 4.79322034,41.8791667 L11.6745763,41.8791667 L11.6745763,38.5729167 C9.25423729,38.1416667 7.11864407,36.9916667 5.31525424,35.1229167 C2.94237288,32.7270833 1.70847458,29.8041667 1.70847458,26.4020833 L1.70847458,21.1791667 L0.427118644,21.1791667 C0.33220339,21.1791667 0.237288136,21.0833333 0.237288136,20.9875 L0.237288136,18.4479167 C0.237288136,18.3520833 0.33220339,18.25625 0.427118644,18.25625 L1.70847458,18.25625 L1.70847458,16.4833333 C1.70847458,16.24375 1.80338983,16.0041667 1.99322034,15.8604167 C2.18305085,15.66875 2.37288136,15.5729167 2.65762712,15.5729167 C2.89491525,15.5729167 3.13220339,15.66875 3.3220339,15.8604167 C3.51186441,16.0520833 3.60677966,16.24375 3.60677966,16.4833333 L3.60677966,18.25625 L4.5559322,18.25625 C4.69830508,17.96875 4.88813559,17.68125 5.12542373,17.4416667 C5.31525424,17.25 5.55254237,17.0583333 5.78983051,16.9145833 L5.78983051,8.48125 C5.78983051,6.22916667 6.59661017,4.26458333 8.16271186,2.63541667 C9.77627119,1.05416667 11.6745763,0.239583333 13.9525424,0.239583333 L14.0474576,0.239583333 C16.2779661,0.239583333 18.2237288,1.05416667 19.7898305,2.63541667 C21.4033898,4.26458333 22.1627119,6.18125 22.1627119,8.48125 L22.1627119,16.7708333 C22.5423729,16.9145833 22.9220339,17.1541667 23.2067797,17.4895833 C23.4440678,17.7291667 23.6813559,18.0166667 23.8237288,18.3041667 L24.5355932,18.3041667 L24.5355932,16.53125 C24.5355932,16.2916667 24.6305085,16.0520833 24.820339,15.9083333 C25.0101695,15.7166667 25.2,15.6208333 25.4847458,15.6208333 C25.7220339,15.6208333 25.959322,15.7166667 26.1491525,15.9083333 C26.3389831,16.1 26.4338983,16.2916667 26.4338983,16.53125 L26.4338983,18.3041667 L27.7152542,18.3041667 C27.6677966,18.3041667 27.7627119,18.3520833 27.7627119,18.4479167 Z M6.54915254,17.4895833 L7.16610169,17.4895833 L9.72881356,17.4895833 L17.9864407,17.4895833 L20.5491525,17.4895833 L21.3559322,17.4895833 L21.3559322,8.625 C21.3559322,6.56458333 20.6440678,4.83958333 19.1728814,3.35416667 C17.7966102,1.96458333 16.1830508,1.24583333 14.2372881,1.19791667 L13.9525424,1.19791667 L13.8576271,1.19791667 L13.8101695,1.19791667 C11.8169492,1.19791667 10.0610169,1.91666667 8.63728814,3.35416667 C7.21355932,4.79166667 6.45423729,6.56458333 6.45423729,8.625 L6.45423729,17.4895833 L6.54915254,17.4895833 Z M5.64745763,18.9270833 L22.1152542,18.9270833 L22.1152542,18.4 L5.64745763,18.4 L5.64745763,18.9270833 Z M5.64745763,21.0354167 L22.1152542,21.0354167 L22.1152542,20.5083333 L5.64745763,20.5083333 L5.64745763,21.0354167 Z M24.4881356,21.1791667 L23.9186441,21.1791667 L23.9186441,21.2270833 C23.7288136,21.8020833 23.4915254,22.1854167 23.2067797,22.5208333 C22.8745763,22.85625 22.5423729,23.0958333 22.1627119,23.2395833 L22.1627119,26.2104167 C22.1627119,28.5104167 21.3559322,30.4270833 19.7898305,32.0083333 C18.2237288,33.6375 16.2779661,34.4041667 14.0474576,34.4041667 L13.9525424,34.4041667 C11.6745763,34.4041667 9.77627119,33.5895833 8.16271186,32.0083333 C6.54915254,30.4270833 5.78983051,28.4625 5.78983051,26.2104167 L5.78983051,23.0479167 C5.55254237,22.9041667 5.31525424,22.7125 5.12542373,22.5208333 C4.84067797,22.2333333 4.60338983,21.8020833 4.41355932,21.2270833 L4.41355932,21.1791667 L3.60677966,21.1791667 L3.60677966,26.4020833 C3.60677966,29.325 4.65084746,31.76875 6.6440678,33.8291667 C8.11525424,35.3145833 9.82372881,36.2729167 11.7220339,36.7041667 C11.7694915,35.9375 12.1966102,35.5541667 13.0033898,35.5541667 L15.0915254,35.5541667 C15.8983051,35.5541667 16.3254237,35.9375 16.3728814,36.7041667 C18.3186441,36.3208333 20.0271186,35.3625 21.4983051,33.8291667 C23.5389831,31.76875 24.5355932,29.2770833 24.5355932,26.4020833 L24.5355932,21.1791667 L24.4881356,21.1791667 Z" id="Shape"></path>
            </g>
        </g>
    </g>
</svg>