<?xml version="1.0" encoding="UTF-8" standalone="no"?>
<svg width="35px" height="48px" viewBox="0 0 35 48" version="1.1" xmlns="http://www.w3.org/2000/svg" xmlns:xlink="http://www.w3.org/1999/xlink">
    <!-- Generator: Sketch 43.2 (39069) - http://www.bohemiancoding.com/sketch -->
    <title>ticket-icon</title>
    <desc>Created with Sketch.</desc>
    <defs>
        <linearGradient x1="50%" y1="0%" x2="50%" y2="100%" id="linearGradient-1">
            <stop stop-color="#FFA95C" offset="0%"></stop>
            <stop stop-color="#F2C94C" offset="100%"></stop>
        </linearGradient>
    </defs>
    <g id="Page-2" stroke="none" stroke-width="1" fill="none" fill-rule="evenodd">
        <g id="ticket-icon" fill-rule="nonzero" fill="url(#linearGradient-1)">
            <g id="Group-10-Copy">
                <path d="M38.0745669,21.145706 L38.7412336,21.145706 L38.7412336,12.2813269 L27.7888526,12.2813269 L27.6459955,12.7102484 C27.5031383,13.0438541 27.169805,13.3298018 26.7888526,13.3298018 C26.4079002,13.3298018 26.0745669,13.0915121 25.9317098,12.7102484 L25.7888526,12.2813269 L-3.35400453,12.2813269 L-3.35400453,21.1933639 L-2.68733786,21.1933639 L-2.63971882,21.1933639 C-0.97305215,21.1933639 0.407900231,22.5754445 0.407900231,24.2434728 C0.407900231,25.9115012 -0.97305215,27.2935818 -2.63971882,27.2935818 L-3.35400453,27.2935818 L-3.35400453,36.1579609 L25.7888526,36.1579609 L25.9317098,35.7290393 C26.0745669,35.3954336 26.4079002,35.1094859 26.7888526,35.1094859 C27.169805,35.1094859 27.5031383,35.3477757 27.6459955,35.7290393 L27.7888526,36.1579609 L38.6936145,36.1579609 L38.6936145,27.2459238 L38.0269479,27.2459238 C36.3602812,27.2459238 34.9793288,25.8638432 34.9793288,24.1958149 C35.0269479,22.5277866 36.4079002,21.145706 38.0745669,21.145706 Z M26.7888526,34.1086689 C26.3126621,34.1086689 25.8840907,33.6797473 25.8840907,33.2031678 C25.8840907,32.7265883 26.3126621,32.2976667 26.7888526,32.2976667 C27.2650431,32.2976667 27.6936145,32.7265883 27.6936145,33.2031678 C27.6936145,33.7274053 27.3126621,34.1086689 26.7888526,34.1086689 Z M26.7888526,31.5351395 C26.3126621,31.5351395 25.8840907,31.1062179 25.8840907,30.6296384 C25.8840907,30.1530589 26.3126621,29.7241373 26.7888526,29.7241373 C27.2650431,29.7241373 27.6936145,30.1530589 27.6936145,30.6296384 C27.6936145,31.1538759 27.3126621,31.5351395 26.7888526,31.5351395 Z M26.7888526,28.9616101 C26.3126621,28.9616101 25.8840907,28.5326885 25.8840907,28.056109 C25.8840907,27.5795295 26.3126621,27.1506079 26.7888526,27.1506079 C27.2650431,27.1506079 27.6936145,27.5795295 27.6936145,28.056109 C27.6936145,28.5803465 27.3126621,28.9616101 26.7888526,28.9616101 Z M26.7888526,26.3880807 C26.3126621,26.3880807 25.8840907,25.9591591 25.8840907,25.4825796 C25.8840907,25.0060001 26.3126621,24.5770785 26.7888526,24.5770785 C27.2650431,24.5770785 27.6936145,25.0060001 27.6936145,25.4825796 C27.6936145,26.0068171 27.3126621,26.3880807 26.7888526,26.3880807 Z M26.7888526,23.8145513 C26.3126621,23.8145513 25.8840907,23.3856297 25.8840907,22.9090502 C25.8840907,22.4324707 26.3126621,22.0035491 26.7888526,22.0035491 C27.2650431,22.0035491 27.6936145,22.4324707 27.6936145,22.9090502 C27.6936145,23.3856297 27.3126621,23.8145513 26.7888526,23.8145513 Z M26.7888526,21.2410219 C26.3126621,21.2410219 25.8840907,20.8121003 25.8840907,20.3355208 C25.8840907,19.8589412 26.3126621,19.4300197 26.7888526,19.4300197 C27.2650431,19.4300197 27.6936145,19.8589412 27.6936145,20.3355208 C27.6936145,20.8121003 27.3126621,21.2410219 26.7888526,21.2410219 Z M26.7888526,18.6674924 C26.3126621,18.6674924 25.8840907,18.2385709 25.8840907,17.7619914 C25.8840907,17.2854118 26.3126621,16.8564903 26.7888526,16.8564903 C27.2650431,16.8564903 27.6936145,17.2854118 27.6936145,17.7619914 C27.6936145,18.2385709 27.3126621,18.6674924 26.7888526,18.6674924 Z M26.7888526,16.093963 C26.3126621,16.093963 25.8840907,15.6650415 25.8840907,15.1884619 C25.8840907,14.7118824 26.3126621,14.2829609 26.7888526,14.2829609 C27.2650431,14.2829609 27.6936145,14.7118824 27.6936145,15.1884619 C27.6936145,15.6650415 27.3126621,16.093963 26.7888526,16.093963 Z" id="Shape-Copy-2" transform="translate(17.693615, 24.219644) rotate(-105.000000) translate(-17.693615, -24.219644) "></path>
            </g>
        </g>
    </g>
</svg>