<?xml version="1.0" encoding="UTF-8" standalone="no"?>
<svg width="29px" height="45px" viewBox="0 0 29 45" version="1.1" xmlns="http://www.w3.org/2000/svg" xmlns:xlink="http://www.w3.org/1999/xlink">
    <!-- Generator: Sketch 43.2 (39069) - http://www.bohemiancoding.com/sketch -->
    <title>volunteer-icon</title>
    <desc>Created with Sketch.</desc>
    <defs>
        <linearGradient x1="113.570676%" y1="34.2161557%" x2="-24.6243688%" y2="78.3619347%" id="linearGradient-1">
            <stop stop-color="#F46B45" offset="0%"></stop>
            <stop stop-color="#EEA849" offset="100%"></stop>
        </linearGradient>
    </defs>
    <g id="Page-2" stroke="none" stroke-width="1" fill="none" fill-rule="evenodd">
        <g id="volunteer-icon" fill-rule="nonzero" fill="url(#linearGradient-1)">
            <g id="noun_15050-copy-3">
                <path d="M6.34902836,16.3865253 C7.43224709,15.1716774 2.97180148,3.73686636 6.19050855,2.58796313 C8.52527894,1.7607235 8.36751399,5.906447 8.52527894,7.11543318 C8.75475524,9.60374654 9.30051632,12.6188848 10.1550136,14.880788 C10.930251,11.2611567 10.8540105,7.5660553 11.0095109,3.87388479 C11.0849965,2.74036866 11.3967521,0.179516129 12.9502463,0.327525346 C16.601486,0.556133641 12.4067498,12.467212 14.8154961,13.9751475 C16.4452308,12.1645991 16.9132416,7.49058525 17.5344883,5.15321198 C17.7684938,4.17356682 18.0847786,1.07563134 20.3297211,2.36375115 C22.0409802,3.34632719 20.639967,9.5282765 20.098735,11.4868341 C19.5522191,13.5230599 19.5522191,14.9533272 18.9302176,17.2928986 C18.7792463,18.8770369 18.4682455,20.6113825 19.5522191,21.8174378 C21.495974,21.8174378 25.9654779,16.4612627 28.1402187,18.1186728 C29.6159627,19.1752535 28.8822424,20.5337143 27.870735,21.1741106 C20.4104907,25.8525207 21.5722145,31.6563871 17.9979701,32.3334194 C17.9979701,38.2779677 17.6273357,38.5021797 18.2448081,44.4181521 C14.3625824,45.043894 10.3007009,44.8892903 6.58378866,44.6496912 L6.58378866,44.6467604 C6.83817521,41.5283088 6.73475991,43.9030507 6.97178477,40.4431521 C7.14993085,37.7548065 7.20201593,35.3514885 7.28278555,32.712235 L7.20201593,32.4110876 C4.87479409,31.805129 4.17730692,27.8506452 3.3975404,25.2113917 C2.54455284,22.3427972 3.55304079,19.7804793 2.46378322,16.9924839 C1.77233489,14.8800553 -1.16858508,9.63232258 0.680812743,8.09581106 C1.77233489,7.18870507 2.38754274,7.94267281 3.24204002,9.90196313 C3.94254662,11.4985576 4.29430963,16.1601152 6.34902836,16.3865253 Z" id="Shape"></path>
            </g>
        </g>
    </g>
</svg>